#!OML:ASF E:\Style4\Style4.ASF
:FULLY-SPECIFIED
:DEGREES
1346
root 0.969111 16.9359 -1.48686 5.02164 -20.2064 3.92926
lowerback 19.4847 -0.143241 -0.294735
upperback 9.56025 -0.3671 0.127114
thorax -0.605752 -0.250079 0.373048
lowerneck 4.29334 3.53898 -4.79173
upperneck -3.29595 4.17704 -5.92007
head -1.73228 2.27805 -1.16941
rclavicle -5.96354e-015 3.06128e-014
rhumerus -9.088 29.3345 -85.5903
rradius 126.835
rwrist 4.88352
rhand 33.7129 1.85086
rfingers 7.12502
rthumb 57.0104 -14.7264
lclavicle -5.96354e-015 3.06128e-014
lhumerus 33.0876 -16.858 59.3016
lradius 110.864
lwrist -4.65947
lhand 25.4216 32.5759
lfingers 7.12502
lthumb 49.5479 54.0329
rfemur -38.3174 5.92861 11.3608
rtibia 51.7607
rfoot -19.0244 -7.49551
rtoes -17.4681
lfemur -31.8522 14.7958 -26.713
ltibia 51.3443
lfoot -27.563 13.0952
ltoes -10.2944
1347
root 0.95805 16.9315 -1.48323 5.00158 -20.0517 3.8779
lowerback 19.4529 -0.160325 -0.330933
upperback 9.60646 -0.396879 0.0535587
thorax -0.539905 -0.264377 0.321129
lowerneck 4.16721 3.56891 -4.75534
upperneck -3.21527 4.23715 -5.84241
head -1.68371 2.30101 -1.14776
rclavicle -3.4191e-014 2.98177e-014
rhumerus -9.38837 29.4664 -85.7066
rradius 126.865
rwrist 5.11486
rhand 33.8784 1.86452
rfingers 7.12502
rthumb 57.1559 -14.5909
lclavicle -3.4191e-014 2.98177e-014
lhumerus 30.8189 -17.7787 60.9374
lradius 111.987
lwrist -4.6228
lhand 25.2572 33.251
lfingers 7.12502
lthumb 49.3972 54.7845
rfemur -38.2481 5.87454 11.4646
rtibia 51.8276
rfoot -19.0209 -7.6596
rtoes -17.6688
lfemur -31.785 14.7528 -26.5892
ltibia 51.3471
lfoot -27.681 12.7961
ltoes -9.6038
1348
root 0.947305 16.931 -1.47971 4.97266 -19.8908 3.90507
lowerback 19.4389 -0.166171 -0.437974
upperback 9.63759 -0.424093 -0.0434418
thorax -0.499049 -0.278911 0.2842
lowerneck 4.08958 3.60508 -4.64244
upperneck -3.21356 4.3006 -5.7934
head -1.6673 2.3291 -1.15076
rclavicle -1.03368e-014 -1.98785e-014
rhumerus -9.43693 29.4873 -85.6959
rradius 126.771
rwrist 5.19287
rhand 34.1025 1.55579
rfingers 7.12502
rthumb 57.3526 -14.7326
lclavicle -1.03368e-014 -1.98785e-014
lhumerus 28.5289 -18.6001 62.4779
lradius 113.007
lwrist -4.55681
lhand 24.9173 33.9496
lfingers 7.12502
lthumb 49.0852 55.6398
rfemur -38.1726 5.80338 11.4756
rtibia 51.8562
rfoot -19.0236 -7.79893
rtoes -17.9635
lfemur -31.7185 14.7074 -26.5605
ltibia 51.3178
lfoot -27.669 12.5869
ltoes -9.1371
1349
root 0.937134 16.9344 -1.47622 4.92999 -19.7654 3.98851
lowerback 19.4009 -0.15082 -0.571054
upperback 9.68779 -0.429139 -0.174928
thorax -0.425687 -0.282724 0.22103
lowerneck 3.99906 3.6246 -4.55829
upperneck -3.26476 4.34143 -5.65623
head -1.66828 2.3462 -1.12129
rclavicle 1.68967e-014 -1.27222e-014
rhumerus -9.48578 29.4684 -85.6929
rradius 126.647
rwrist 5.14975
rhand 34.7533 1.27998
rfingers 7.12502
rthumb 57.9221 -14.5112
lclavicle 1.68967e-014 -1.27222e-014
lhumerus 26.2139 -19.3419 64.1265
lradius 113.909
lwrist -4.5694
lhand 24.2224 34.5555
lfingers 7.12502
lthumb 48.4463 56.5574
rfemur -38.0903 5.75906 11.4145
rtibia 51.8476
rfoot -19.0808 -7.82659
rtoes -17.9631
lfemur -31.6529 14.7371 -26.6225
ltibia 51.2522
lfoot -27.5241 12.6095
ltoes -9.60554
